<mxfile host="app.diagrams.net" modified="2020-09-12T08:28:05.064Z" agent="5.0 (Windows)" etag="y2zUwl1KZU9xN-IezgHg" version="13.6.10" type="github">
  <diagram id="VIDsN00WjXCdaQkzZiw9" name="Page-1">
    <mxGraphModel dx="1865" dy="547" grid="1" gridSize="10" guides="1" tooltips="1" connect="1" arrows="1" fold="1" page="1" pageScale="1" pageWidth="827" pageHeight="1169" math="0" shadow="0">
      <root>
        <mxCell id="0" />
        <mxCell id="1" parent="0" />
        <mxCell id="G-h2OYZ_f96LxI_nia-u-32" value="" style="endArrow=diamondThin;endFill=0;endSize=24;html=1;" edge="1" parent="1" source="G-h2OYZ_f96LxI_nia-u-33" target="G-h2OYZ_f96LxI_nia-u-21">
          <mxGeometry width="160" relative="1" as="geometry">
            <mxPoint x="-413" y="320" as="sourcePoint" />
            <mxPoint x="-580" y="120" as="targetPoint" />
          </mxGeometry>
        </mxCell>
        <mxCell id="G-h2OYZ_f96LxI_nia-u-37" value="" style="endArrow=diamondThin;endFill=0;endSize=24;html=1;" edge="1" parent="1" source="G-h2OYZ_f96LxI_nia-u-33" target="G-h2OYZ_f96LxI_nia-u-28">
          <mxGeometry width="160" relative="1" as="geometry">
            <mxPoint x="-350.3333333333335" y="360" as="sourcePoint" />
            <mxPoint x="-385.66666666666674" y="254" as="targetPoint" />
          </mxGeometry>
        </mxCell>
        <mxCell id="G-h2OYZ_f96LxI_nia-u-43" value="" style="endArrow=block;endSize=16;endFill=0;html=1;" edge="1" parent="1" source="G-h2OYZ_f96LxI_nia-u-21" target="G-h2OYZ_f96LxI_nia-u-39">
          <mxGeometry width="160" relative="1" as="geometry">
            <mxPoint x="-780" y="110" as="sourcePoint" />
            <mxPoint x="-620" y="110" as="targetPoint" />
          </mxGeometry>
        </mxCell>
        <mxCell id="G-h2OYZ_f96LxI_nia-u-44" value="" style="endArrow=block;endSize=16;endFill=0;html=1;" edge="1" parent="1" source="G-h2OYZ_f96LxI_nia-u-28" target="G-h2OYZ_f96LxI_nia-u-39">
          <mxGeometry width="160" relative="1" as="geometry">
            <mxPoint x="-610" y="204.6570048309179" as="sourcePoint" />
            <mxPoint x="-543" y="159.3429951690821" as="targetPoint" />
          </mxGeometry>
        </mxCell>
        <mxCell id="G-h2OYZ_f96LxI_nia-u-62" value="" style="endArrow=none;html=1;edgeStyle=orthogonalEdgeStyle;" edge="1" parent="1" source="G-h2OYZ_f96LxI_nia-u-49" target="G-h2OYZ_f96LxI_nia-u-21">
          <mxGeometry relative="1" as="geometry">
            <mxPoint x="-760" y="310" as="sourcePoint" />
            <mxPoint x="-600" y="310" as="targetPoint" />
          </mxGeometry>
        </mxCell>
        <mxCell id="G-h2OYZ_f96LxI_nia-u-63" value="1" style="edgeLabel;resizable=0;html=1;align=left;verticalAlign=bottom;" connectable="0" vertex="1" parent="G-h2OYZ_f96LxI_nia-u-62">
          <mxGeometry x="-1" relative="1" as="geometry">
            <mxPoint x="-20" y="18" as="offset" />
          </mxGeometry>
        </mxCell>
        <mxCell id="G-h2OYZ_f96LxI_nia-u-64" value="0..*" style="edgeLabel;resizable=0;html=1;align=right;verticalAlign=bottom;" connectable="0" vertex="1" parent="G-h2OYZ_f96LxI_nia-u-62">
          <mxGeometry x="1" relative="1" as="geometry">
            <mxPoint x="-10" as="offset" />
          </mxGeometry>
        </mxCell>
        <mxCell id="G-h2OYZ_f96LxI_nia-u-65" value="have" style="edgeLabel;html=1;align=center;verticalAlign=middle;resizable=0;points=[];" vertex="1" connectable="0" parent="G-h2OYZ_f96LxI_nia-u-62">
          <mxGeometry x="-0.2245" y="2" relative="1" as="geometry">
            <mxPoint x="18" y="8" as="offset" />
          </mxGeometry>
        </mxCell>
        <mxCell id="G-h2OYZ_f96LxI_nia-u-67" value="" style="endArrow=block;endSize=16;endFill=0;html=1;" edge="1" parent="1" source="G-h2OYZ_f96LxI_nia-u-49" target="G-h2OYZ_f96LxI_nia-u-66">
          <mxGeometry width="160" relative="1" as="geometry">
            <mxPoint x="-550" y="236" as="sourcePoint" />
            <mxPoint x="-480" y="236" as="targetPoint" />
          </mxGeometry>
        </mxCell>
        <mxCell id="G-h2OYZ_f96LxI_nia-u-71" value="" style="endArrow=none;html=1;edgeStyle=orthogonalEdgeStyle;" edge="1" parent="1" source="G-h2OYZ_f96LxI_nia-u-66" target="G-h2OYZ_f96LxI_nia-u-28">
          <mxGeometry relative="1" as="geometry">
            <mxPoint x="-280" y="120" as="sourcePoint" />
            <mxPoint x="-120" y="120" as="targetPoint" />
          </mxGeometry>
        </mxCell>
        <mxCell id="G-h2OYZ_f96LxI_nia-u-72" value="0..*" style="edgeLabel;resizable=0;html=1;align=left;verticalAlign=bottom;" connectable="0" vertex="1" parent="G-h2OYZ_f96LxI_nia-u-71">
          <mxGeometry x="-1" relative="1" as="geometry">
            <mxPoint x="13" as="offset" />
          </mxGeometry>
        </mxCell>
        <mxCell id="G-h2OYZ_f96LxI_nia-u-73" value="0..*" style="edgeLabel;resizable=0;html=1;align=right;verticalAlign=bottom;" connectable="0" vertex="1" parent="G-h2OYZ_f96LxI_nia-u-71">
          <mxGeometry x="1" relative="1" as="geometry">
            <mxPoint x="30" as="offset" />
          </mxGeometry>
        </mxCell>
        <mxCell id="G-h2OYZ_f96LxI_nia-u-74" value="publish_in" style="edgeLabel;html=1;align=center;verticalAlign=middle;resizable=0;points=[];" vertex="1" connectable="0" parent="G-h2OYZ_f96LxI_nia-u-71">
          <mxGeometry x="0.1224" y="-31" relative="1" as="geometry">
            <mxPoint x="-28" y="-17" as="offset" />
          </mxGeometry>
        </mxCell>
        <mxCell id="G-h2OYZ_f96LxI_nia-u-75" value="" style="endArrow=none;html=1;edgeStyle=orthogonalEdgeStyle;" edge="1" parent="1" source="G-h2OYZ_f96LxI_nia-u-66" target="G-h2OYZ_f96LxI_nia-u-33">
          <mxGeometry relative="1" as="geometry">
            <mxPoint x="-470" y="160" as="sourcePoint" />
            <mxPoint x="-310" y="160" as="targetPoint" />
          </mxGeometry>
        </mxCell>
        <mxCell id="G-h2OYZ_f96LxI_nia-u-76" value="1" style="edgeLabel;resizable=0;html=1;align=left;verticalAlign=bottom;" connectable="0" vertex="1" parent="G-h2OYZ_f96LxI_nia-u-75">
          <mxGeometry x="-1" relative="1" as="geometry">
            <mxPoint x="-17" y="18" as="offset" />
          </mxGeometry>
        </mxCell>
        <mxCell id="G-h2OYZ_f96LxI_nia-u-77" value="0..*" style="edgeLabel;resizable=0;html=1;align=right;verticalAlign=bottom;" connectable="0" vertex="1" parent="G-h2OYZ_f96LxI_nia-u-75">
          <mxGeometry x="1" relative="1" as="geometry">
            <mxPoint x="-7" as="offset" />
          </mxGeometry>
        </mxCell>
        <mxCell id="G-h2OYZ_f96LxI_nia-u-78" value="take" style="edgeLabel;html=1;align=center;verticalAlign=middle;resizable=0;points=[];" vertex="1" connectable="0" parent="G-h2OYZ_f96LxI_nia-u-75">
          <mxGeometry x="0.2564" y="-2" relative="1" as="geometry">
            <mxPoint x="22" y="-11" as="offset" />
          </mxGeometry>
        </mxCell>
        <mxCell id="G-h2OYZ_f96LxI_nia-u-66" value="User" style="swimlane;fontStyle=1;childLayout=stackLayout;horizontal=1;startSize=26;fillColor=none;horizontalStack=0;resizeParent=1;resizeParentMax=0;resizeLast=0;collapsible=1;marginBottom=0;" vertex="1" parent="1">
          <mxGeometry x="-470" y="70" width="140" height="52" as="geometry" />
        </mxCell>
        <mxCell id="G-h2OYZ_f96LxI_nia-u-80" value="ID" style="text;strokeColor=none;fillColor=none;align=left;verticalAlign=top;spacingLeft=4;spacingRight=4;overflow=hidden;rotatable=0;points=[[0,0.5],[1,0.5]];portConstraint=eastwest;fontStyle=4" vertex="1" parent="G-h2OYZ_f96LxI_nia-u-66">
          <mxGeometry y="26" width="140" height="26" as="geometry" />
        </mxCell>
        <mxCell id="G-h2OYZ_f96LxI_nia-u-33" value="Picture" style="swimlane;fontStyle=1;childLayout=stackLayout;horizontal=1;startSize=26;fillColor=none;horizontalStack=0;resizeParent=1;resizeParentMax=0;resizeLast=0;collapsible=1;marginBottom=0;" vertex="1" parent="1">
          <mxGeometry x="-470" y="200" width="140" height="52" as="geometry" />
        </mxCell>
        <mxCell id="G-h2OYZ_f96LxI_nia-u-83" value="ID" style="text;strokeColor=none;fillColor=none;align=left;verticalAlign=top;spacingLeft=4;spacingRight=4;overflow=hidden;rotatable=0;points=[[0,0.5],[1,0.5]];portConstraint=eastwest;fontStyle=4" vertex="1" parent="G-h2OYZ_f96LxI_nia-u-33">
          <mxGeometry y="26" width="140" height="26" as="geometry" />
        </mxCell>
        <mxCell id="G-h2OYZ_f96LxI_nia-u-39" value="Collections" style="swimlane;fontStyle=1;childLayout=stackLayout;horizontal=1;startSize=26;fillColor=none;horizontalStack=0;resizeParent=1;resizeParentMax=0;resizeLast=0;collapsible=1;marginBottom=0;" vertex="1" parent="1">
          <mxGeometry x="-470" y="300" width="140" height="52" as="geometry" />
        </mxCell>
        <mxCell id="G-h2OYZ_f96LxI_nia-u-85" value="ID" style="text;strokeColor=none;fillColor=none;align=left;verticalAlign=top;spacingLeft=4;spacingRight=4;overflow=hidden;rotatable=0;points=[[0,0.5],[1,0.5]];portConstraint=eastwest;fontStyle=4" vertex="1" parent="G-h2OYZ_f96LxI_nia-u-39">
          <mxGeometry y="26" width="140" height="26" as="geometry" />
        </mxCell>
        <mxCell id="G-h2OYZ_f96LxI_nia-u-49" value="Owner" style="swimlane;fontStyle=1;childLayout=stackLayout;horizontal=1;startSize=26;fillColor=none;horizontalStack=0;resizeParent=1;resizeParentMax=0;resizeLast=0;collapsible=1;marginBottom=0;" vertex="1" parent="1">
          <mxGeometry x="-700" y="70" width="140" height="52" as="geometry" />
        </mxCell>
        <mxCell id="G-h2OYZ_f96LxI_nia-u-21" value="Album" style="swimlane;fontStyle=1;childLayout=stackLayout;horizontal=1;startSize=26;fillColor=none;horizontalStack=0;resizeParent=1;resizeParentMax=0;resizeLast=0;collapsible=1;marginBottom=0;" vertex="1" parent="1">
          <mxGeometry x="-700" y="200" width="140" height="52" as="geometry" />
        </mxCell>
        <mxCell id="G-h2OYZ_f96LxI_nia-u-28" value="Gallery" style="swimlane;fontStyle=1;childLayout=stackLayout;horizontal=1;startSize=26;fillColor=none;horizontalStack=0;resizeParent=1;resizeParentMax=0;resizeLast=0;collapsible=1;marginBottom=0;" vertex="1" parent="1">
          <mxGeometry x="-240" y="200" width="140" height="52" as="geometry" />
        </mxCell>
      </root>
    </mxGraphModel>
  </diagram>
</mxfile>
